<svg width="54" height="54" viewBox="0 0 64 64" fill="none" xmlns="http://www.w3.org/2000/svg">
<rect width="54" height="54" rx="7" fill="#272343"/>
<path d="M31.624 33.496C31.624 34.096 30.928 34.672 29.536 35.224C28.144 35.776 26.74 36.22 25.324 36.556L23.164 37.06C20.956 39.46 18.664 41.176 16.288 42.208C13.912 43.24 11.8 43.756 9.952 43.756C8.896 43.756 7.96 43.564 7.144 43.18C6.352 42.796 5.752 42.352 5.344 41.848C4.936 41.32 4.612 40.732 4.372 40.084C3.988 39.124 3.796 38.272 3.796 37.528C3.796 35.464 4.216 33.496 5.056 31.624C5.92 29.728 7.06 28.072 8.476 26.656C9.916 25.24 11.548 23.968 13.372 22.84C15.196 21.688 17.092 20.752 19.06 20.032C23.116 18.544 26.824 17.8 30.184 17.8C32.224 17.8 33.844 18.088 35.044 18.664C36.244 19.24 36.844 20.08 36.844 21.184C36.844 21.976 36.136 23.104 34.72 24.568C33.304 26.032 32.188 26.764 31.372 26.764C30.916 26.764 30.688 26.524 30.688 26.044C30.688 25.564 31.096 24.928 31.912 24.136C32.728 23.32 33.136 22.852 33.136 22.732C33.136 22.612 33.064 22.552 32.92 22.552C32.104 22.552 30.892 22.864 29.284 23.488C27.676 24.088 25.924 24.952 24.028 26.08C22.132 27.184 20.32 28.432 18.592 29.824C16.864 31.192 15.424 32.752 14.272 34.504C13.12 36.232 12.544 37.924 12.544 39.58C12.544 40.276 12.88 40.624 13.552 40.624C14.632 40.624 15.94 40.204 17.476 39.364C19.012 38.5 19.792 37.888 19.816 37.528C19.456 37.552 19.156 37.564 18.916 37.564C18.004 37.564 17.212 37.324 16.54 36.844C15.892 36.34 15.568 35.68 15.568 34.864C15.568 34.024 16.132 33.244 17.26 32.524C18.388 31.78 19.78 31.192 21.436 30.76C23.116 30.304 24.736 30.076 26.296 30.076C27.88 30.076 29.164 30.352 30.148 30.904C31.132 31.456 31.624 32.32 31.624 33.496ZM42.3604 26.512L44.4844 26.188C44.8204 26.188 45.0004 26.272 45.0244 26.44C45.0244 26.896 44.5924 27.304 43.7284 27.664C42.8884 28.024 41.8084 28.204 40.4884 28.204C39.1684 28.204 38.0764 27.892 37.2124 27.268C36.3484 26.62 35.9164 25.732 35.9164 24.604C35.9164 23.62 36.8164 22.336 38.6164 20.752C39.5524 19.936 40.6564 19.168 41.9284 18.448C43.2244 17.728 44.8564 17.128 46.8244 16.648C48.8164 16.144 50.8204 15.892 52.8364 15.892C54.8524 15.892 56.5204 16.132 57.8404 16.612C59.1844 17.068 60.1804 17.644 60.8284 18.34C62.0524 19.66 62.6644 20.836 62.6644 21.868C62.6644 22.444 62.5084 23.008 62.1964 23.56C61.9084 24.088 61.4884 24.52 60.9364 24.856C56.5924 27.352 53.3524 28.936 51.2164 29.608C50.8324 29.776 50.6404 29.92 50.6404 30.04C50.6404 30.088 50.8084 30.136 51.1444 30.184C53.0164 30.184 54.7924 30.52 56.4724 31.192C57.4084 31.576 58.1644 32.152 58.7404 32.92C59.3164 33.688 59.6044 34.684 59.6044 35.908C59.6044 37.108 59.1124 38.272 58.1284 39.4C57.1684 40.528 55.9564 41.452 54.4924 42.172C53.0524 42.892 51.4564 43.504 49.7044 44.008C46.4644 44.896 43.5004 45.34 40.8124 45.34C39.3724 45.34 37.9924 45.16 36.6724 44.8C34.1044 44.104 32.8204 43.072 32.8204 41.704C32.8204 40.864 33.1684 40.048 33.8644 39.256C34.5844 38.44 35.2564 38.008 35.8804 37.96C35.9044 37.96 36.1204 38.008 36.5284 38.104C37.6564 38.368 39.0844 38.5 40.8124 38.5C42.5404 38.5 44.5684 38.188 46.8964 37.564C49.2484 36.94 51.2404 36.196 52.8724 35.332C54.5044 34.444 55.3204 33.64 55.3204 32.92C55.3204 32.056 53.6044 31.624 50.1724 31.624C48.8764 31.624 47.8684 31.696 47.1484 31.84C46.9804 31.864 46.1644 32.716 44.7004 34.396C43.2604 36.076 42.3484 37.156 41.9644 37.636C41.5564 37.996 41.1724 38.176 40.8124 38.176C40.4764 38.176 40.2364 38.104 40.0924 37.96C39.9484 37.816 39.8764 37.684 39.8764 37.564C39.8764 37.444 39.9244 37.3 40.0204 37.132C40.1164 36.964 40.4404 36.508 40.9924 35.764C42.5044 33.724 43.2604 32.644 43.2604 32.524C43.2604 32.38 43.1524 32.152 42.9364 31.84C42.7444 31.504 42.6484 31.216 42.6484 30.976C42.6484 30.736 42.8284 30.544 43.1884 30.4C43.5724 30.256 44.0284 30.124 44.5564 30.004C45.1084 29.86 45.4564 29.752 45.6004 29.68C45.7684 29.584 46.4044 28.852 47.5084 27.484C48.6364 26.116 49.2844 25.348 49.4524 25.18C49.6444 25.012 49.9084 24.928 50.2444 24.928C50.8204 24.928 51.1084 25.156 51.1084 25.612C51.1084 25.876 50.8684 26.332 50.3884 26.98C49.9324 27.628 49.7044 28 49.7044 28.096C49.7044 28.168 49.7164 28.216 49.7404 28.24C50.3644 28.24 51.8404 27.64 54.1684 26.44C56.4964 25.24 57.9604 24.4 58.5604 23.92C58.8004 23.824 58.9204 23.668 58.9204 23.452C58.9204 22.972 58.1884 22.732 56.7244 22.732C54.4924 22.732 52.1764 22.996 49.7764 23.524C47.4004 24.052 45.5164 24.604 44.1244 25.18C42.7564 25.732 42.0724 26.14 42.0724 26.404C42.0724 26.476 42.1684 26.512 42.3604 26.512Z" fill="#EEEEEE"/>
<mask id="mask0" mask-type="alpha" maskUnits="userSpaceOnUse" x="6" y="2" width="55" height="47">
<path d="M9.5937 32.7822C-1.24764 45.5535 15.8968 48.1733 15.8968 48.1733C15.8968 48.1733 50.6899 52.4304 59.2622 41.6239C67.8344 30.8174 27.7467 52.4304 50.6899 32.7822C73.6332 13.134 50.5988 10.2575 39.5964 2C39.5964 2 48.673 36.3844 38.0837 25.5778C27.4945 14.7713 20.435 20.0109 9.5937 32.7822Z" fill="#00ADB5"/>
</mask>
<g mask="url(#mask0)">
<path d="M31.624 33.496C31.624 34.096 30.928 34.672 29.536 35.224C28.144 35.776 26.74 36.22 25.324 36.556L23.164 37.06C20.956 39.46 18.664 41.176 16.288 42.208C13.912 43.24 11.8 43.756 9.952 43.756C8.896 43.756 7.96 43.564 7.144 43.18C6.352 42.796 5.752 42.352 5.344 41.848C4.936 41.32 4.612 40.732 4.372 40.084C3.988 39.124 3.796 38.272 3.796 37.528C3.796 35.464 4.216 33.496 5.056 31.624C5.92 29.728 7.06 28.072 8.476 26.656C9.916 25.24 11.548 23.968 13.372 22.84C15.196 21.688 17.092 20.752 19.06 20.032C23.116 18.544 26.824 17.8 30.184 17.8C32.224 17.8 33.844 18.088 35.044 18.664C36.244 19.24 36.844 20.08 36.844 21.184C36.844 21.976 36.136 23.104 34.72 24.568C33.304 26.032 32.188 26.764 31.372 26.764C30.916 26.764 30.688 26.524 30.688 26.044C30.688 25.564 31.096 24.928 31.912 24.136C32.728 23.32 33.136 22.852 33.136 22.732C33.136 22.612 33.064 22.552 32.92 22.552C32.104 22.552 30.892 22.864 29.284 23.488C27.676 24.088 25.924 24.952 24.028 26.08C22.132 27.184 20.32 28.432 18.592 29.824C16.864 31.192 15.424 32.752 14.272 34.504C13.12 36.232 12.544 37.924 12.544 39.58C12.544 40.276 12.88 40.624 13.552 40.624C14.632 40.624 15.94 40.204 17.476 39.364C19.012 38.5 19.792 37.888 19.816 37.528C19.456 37.552 19.156 37.564 18.916 37.564C18.004 37.564 17.212 37.324 16.54 36.844C15.892 36.34 15.568 35.68 15.568 34.864C15.568 34.024 16.132 33.244 17.26 32.524C18.388 31.78 19.78 31.192 21.436 30.76C23.116 30.304 24.736 30.076 26.296 30.076C27.88 30.076 29.164 30.352 30.148 30.904C31.132 31.456 31.624 32.32 31.624 33.496ZM42.3604 26.512L44.4844 26.188C44.8204 26.188 45.0004 26.272 45.0244 26.44C45.0244 26.896 44.5924 27.304 43.7284 27.664C42.8884 28.024 41.8084 28.204 40.4884 28.204C39.1684 28.204 38.0764 27.892 37.2124 27.268C36.3484 26.62 35.9164 25.732 35.9164 24.604C35.9164 23.62 36.8164 22.336 38.6164 20.752C39.5524 19.936 40.6564 19.168 41.9284 18.448C43.2244 17.728 44.8564 17.128 46.8244 16.648C48.8164 16.144 50.8204 15.892 52.8364 15.892C54.8524 15.892 56.5204 16.132 57.8404 16.612C59.1844 17.068 60.1804 17.644 60.8284 18.34C62.0524 19.66 62.6644 20.836 62.6644 21.868C62.6644 22.444 62.5084 23.008 62.1964 23.56C61.9084 24.088 61.4884 24.52 60.9364 24.856C56.5924 27.352 53.3524 28.936 51.2164 29.608C50.8324 29.776 50.6404 29.92 50.6404 30.04C50.6404 30.088 50.8084 30.136 51.1444 30.184C53.0164 30.184 54.7924 30.52 56.4724 31.192C57.4084 31.576 58.1644 32.152 58.7404 32.92C59.3164 33.688 59.6044 34.684 59.6044 35.908C59.6044 37.108 59.1124 38.272 58.1284 39.4C57.1684 40.528 55.9564 41.452 54.4924 42.172C53.0524 42.892 51.4564 43.504 49.7044 44.008C46.4644 44.896 43.5004 45.34 40.8124 45.34C39.3724 45.34 37.9924 45.16 36.6724 44.8C34.1044 44.104 32.8204 43.072 32.8204 41.704C32.8204 40.864 33.1684 40.048 33.8644 39.256C34.5844 38.44 35.2564 38.008 35.8804 37.96C35.9044 37.96 36.1204 38.008 36.5284 38.104C37.6564 38.368 39.0844 38.5 40.8124 38.5C42.5404 38.5 44.5684 38.188 46.8964 37.564C49.2484 36.94 51.2404 36.196 52.8724 35.332C54.5044 34.444 55.3204 33.64 55.3204 32.92C55.3204 32.056 53.6044 31.624 50.1724 31.624C48.8764 31.624 47.8684 31.696 47.1484 31.84C46.9804 31.864 46.1644 32.716 44.7004 34.396C43.2604 36.076 42.3484 37.156 41.9644 37.636C41.5564 37.996 41.1724 38.176 40.8124 38.176C40.4764 38.176 40.2364 38.104 40.0924 37.96C39.9484 37.816 39.8764 37.684 39.8764 37.564C39.8764 37.444 39.9244 37.3 40.0204 37.132C40.1164 36.964 40.4404 36.508 40.9924 35.764C42.5044 33.724 43.2604 32.644 43.2604 32.524C43.2604 32.38 43.1524 32.152 42.9364 31.84C42.7444 31.504 42.6484 31.216 42.6484 30.976C42.6484 30.736 42.8284 30.544 43.1884 30.4C43.5724 30.256 44.0284 30.124 44.5564 30.004C45.1084 29.86 45.4564 29.752 45.6004 29.68C45.7684 29.584 46.4044 28.852 47.5084 27.484C48.6364 26.116 49.2844 25.348 49.4524 25.18C49.6444 25.012 49.9084 24.928 50.2444 24.928C50.8204 24.928 51.1084 25.156 51.1084 25.612C51.1084 25.876 50.8684 26.332 50.3884 26.98C49.9324 27.628 49.7044 28 49.7044 28.096C49.7044 28.168 49.7164 28.216 49.7404 28.24C50.3644 28.24 51.8404 27.64 54.1684 26.44C56.4964 25.24 57.9604 24.4 58.5604 23.92C58.8004 23.824 58.9204 23.668 58.9204 23.452C58.9204 22.972 58.1884 22.732 56.7244 22.732C54.4924 22.732 52.1764 22.996 49.7764 23.524C47.4004 24.052 45.5164 24.604 44.1244 25.18C42.7564 25.732 42.0724 26.14 42.0724 26.404C42.0724 26.476 42.1684 26.512 42.3604 26.512Z" fill="#00ADB5"/>
</g>
</svg>
